<svg id="Layer_1" data-name="Layer 1" xmlns="http://www.w3.org/2000/svg" viewBox="0 0 1200 1200"><defs><style>.cls-1{fill:#e61be6;}.cls-2{fill:#31f7f7;}.cls-3{fill:#3cff49;}.cls-4{fill:#f22;}</style></defs><title>icon</title><path d="M600,1199.5A599.66,599.66,0,0,1,366.65,47.61a599.66,599.66,0,0,1,466.7,1104.78A595.76,595.76,0,0,1,600,1199.5Z"/><path d="M600,1A596.16,596.16,0,0,1,934.91,103.3a600.77,600.77,0,0,1,217,263.54,598.2,598.2,0,0,1-55.23,568.07,600.77,600.77,0,0,1-263.54,217,598.2,598.2,0,0,1-568.07-55.23,600.77,600.77,0,0,1-217-263.54A598.2,598.2,0,0,1,103.3,265.09a600.77,600.77,0,0,1,263.54-217A595.37,595.37,0,0,1,600,1m0-1C268.63,0,0,268.63,0,600s268.63,600,600,600,600-268.63,600-600S931.37,0,600,0Z"/><circle class="cls-1" cx="439" cy="312" r="268"/><circle class="cls-2" cx="751.5" cy="642.5" r="286.5"/><circle class="cls-3" cx="417" cy="561" r="243"/><circle class="cls-4" cx="655" cy="986" r="133"/></svg>