<?xml version="1.0" standalone="no"?>
<!DOCTYPE svg PUBLIC "-//W3C//DTD SVG 20010904//EN"
 "http://www.w3.org/TR/2001/REC-SVG-20010904/DTD/svg10.dtd">
<svg version="1.0" xmlns="http://www.w3.org/2000/svg"
 width="1200.000000pt" height="1200.000000pt" viewBox="0 0 1200.000000 1200.000000"
 preserveAspectRatio="xMidYMid meet">
<metadata>
Created by potrace 1.11, written by Peter Selinger 2001-2013
</metadata>
<g transform="translate(0.000000,1200.000000) scale(0.100000,-0.100000)"
fill="#000000" stroke="none">
<path d="M5690 11994 c-557 -33 -1072 -132 -1590 -304 -1174 -391 -2179 -1121
-2930 -2130 -612 -822 -1012 -1838 -1130 -2868 -70 -614 -46 -1240 71 -1842
71 -363 206 -814 344 -1145 561 -1349 1591 -2447 2900 -3090 658 -324 1339
-515 2105 -592 246 -24 834 -24 1080 0 498 50 909 137 1360 287 1161 386 2154
1102 2900 2092 666 882 1062 1912 1177 3058 24 246 24 834 0 1080 -50 498
-137 909 -287 1360 -386 1161 -1102 2154 -2092 2900 -879 664 -1921 1065
-3048 1175 -157 16 -711 28 -860 19z m-955 -459 c463 -61 890 -235 1274 -522
151 -113 401 -363 514 -514 287 -385 458 -802 523 -1279 24 -172 24 -509 0
-683 -10 -71 -16 -130 -14 -132 2 -1 41 4 88 12 127 20 502 28 656 14 572 -54
1101 -270 1554 -635 97 -77 329 -309 406 -406 360 -446 578 -975 633 -1534 14
-140 14 -422 0 -562 -55 -559 -273 -1088 -633 -1534 -77 -97 -309 -329 -406
-406 -384 -310 -818 -510 -1295 -599 -71 -13 -165 -27 -207 -31 -43 -4 -78 -8
-78 -10 0 -1 14 -37 31 -80 234 -584 26 -1249 -500 -1599 -225 -149 -456 -219
-731 -219 -363 0 -678 131 -936 388 -257 258 -388 573 -388 936 0 157 16 262
60 403 80 251 255 499 462 651 l79 59 -101 80 c-126 100 -348 322 -448 447
-64 80 -220 304 -230 330 -2 4 -55 -9 -118 -30 -274 -90 -521 -125 -825 -117
-381 10 -673 82 -1010 247 -255 125 -463 277 -670 491 -193 199 -324 384 -440
624 -111 228 -182 456 -222 705 -25 162 -25 558 0 720 39 246 109 470 221 705
l61 130 -32 60 c-128 236 -237 587 -279 895 -24 170 -24 510 0 680 65 477 236
894 523 1279 113 151 363 401 514 514 430 321 912 501 1449 541 102 7 394 -3
515 -19z"/>
</g>
</svg>
